<svg width="28" height="28" viewBox="0 0 28 28" fill="none" xmlns="http://www.w3.org/2000/svg">
<g filter="url(#filter0_d_290_2223)">
<path d="M13.9994 2.2109e-06C12.4436 -0.000405201 10.9321 0.48983 9.70321 1.39334C8.47435 2.29684 7.59819 3.56217 7.213 4.98962C6.82781 6.41707 6.95552 7.92535 7.57598 9.27643C8.19645 10.6275 9.27433 11.7444 10.6395 12.4509C8.20543 13.124 6.05871 14.5093 4.50686 16.4085C2.95502 18.3077 2.07767 20.6233 2.00048 23.0236C1.99639 23.148 2.01824 23.272 2.06476 23.3884C2.11129 23.5048 2.18159 23.6114 2.27165 23.7021C2.3617 23.7928 2.46974 23.8658 2.5896 23.9169C2.70945 23.968 2.83877 23.9962 2.97016 24H25.0299C25.295 23.9924 25.5461 23.8854 25.7279 23.7026C25.9097 23.5197 26.0075 23.2759 25.9996 23.0248C25.9224 20.6245 25.045 18.309 23.4932 16.4098C21.9413 14.5106 19.7946 13.1253 17.3605 12.4522C18.7265 11.746 19.8051 10.6289 20.426 9.27742C21.047 7.92595 21.1748 6.4171 20.7894 4.98916C20.4039 3.56122 19.5272 2.29557 18.2976 1.39209C17.068 0.488615 15.5556 -0.00120085 13.9994 2.2109e-06Z" fill="#27BB9E"/>
<path d="M13.9994 2.2109e-06C12.4436 -0.000405201 10.9321 0.48983 9.70321 1.39334C8.47435 2.29684 7.59819 3.56217 7.213 4.98962C6.82781 6.41707 6.95552 7.92535 7.57598 9.27643C8.19645 10.6275 9.27433 11.7444 10.6395 12.4509C8.20543 13.124 6.05871 14.5093 4.50686 16.4085C2.95502 18.3077 2.07767 20.6233 2.00048 23.0236C1.99639 23.148 2.01824 23.272 2.06476 23.3884C2.11129 23.5048 2.18159 23.6114 2.27165 23.7021C2.3617 23.7928 2.46974 23.8658 2.5896 23.9169C2.70945 23.968 2.83877 23.9962 2.97016 24H25.0299C25.295 23.9924 25.5461 23.8854 25.7279 23.7026C25.9097 23.5197 26.0075 23.2759 25.9996 23.0248C25.9224 20.6245 25.045 18.309 23.4932 16.4098C21.9413 14.5106 19.7946 13.1253 17.3605 12.4522C18.7265 11.746 19.8051 10.6289 20.426 9.27742C21.047 7.92595 21.1748 6.4171 20.7894 4.98916C20.4039 3.56122 19.5272 2.29557 18.2976 1.39209C17.068 0.488615 15.5556 -0.00120085 13.9994 2.2109e-06Z" stroke="#27BB9E"/>
</g>
<defs>
<filter id="filter0_d_290_2223" x="0" y="0" width="28" height="28" filterUnits="userSpaceOnUse" color-interpolation-filters="sRGB">
<feFlood flood-opacity="0" result="BackgroundImageFix"/>
<feColorMatrix in="SourceAlpha" type="matrix" values="0 0 0 0 0 0 0 0 0 0 0 0 0 0 0 0 0 0 127 0" result="hardAlpha"/>
<feOffset dy="2"/>
<feGaussianBlur stdDeviation="1"/>
<feComposite in2="hardAlpha" operator="out"/>
<feColorMatrix type="matrix" values="0 0 0 0 0 0 0 0 0 0 0 0 0 0 0 0 0 0 0.25 0"/>
<feBlend mode="normal" in2="BackgroundImageFix" result="effect1_dropShadow_290_2223"/>
<feBlend mode="normal" in="SourceGraphic" in2="effect1_dropShadow_290_2223" result="shape"/>
</filter>
</defs>
</svg>
