<svg width="28" height="28" viewBox="0 0 28 28" fill="none" xmlns="http://www.w3.org/2000/svg">
<g filter="url(#filter0_d_164_1385)">
<path d="M25.5023 11.8073L15.2734 0.982491L14.5877 0.256537C14.4315 0.0922208 14.2203 0 14 0C13.7798 0 13.5686 0.0922208 13.4124 0.256537L2.49779 11.8073C2.33772 11.9762 2.2112 12.1772 2.12573 12.3987C2.04025 12.6201 1.99754 12.8575 2.00011 13.0967C2.0107 14.0833 2.78634 14.8709 3.71817 14.8709H4.84325V24H23.1569V14.8709H24.3058C24.7584 14.8709 25.1846 14.6831 25.505 14.344C25.6627 14.1775 25.7876 13.9796 25.8726 13.7616C25.9576 13.5437 26.0009 13.31 26 13.0743C26 12.5978 25.8226 12.1465 25.5023 11.8073ZM15.4825 21.9819H12.5176V16.264H15.4825V21.9819ZM21.2508 12.8528V21.9819H17.1767V15.5913C17.1767 14.9718 16.7029 14.4701 16.1178 14.4701H11.8823C11.2972 14.4701 10.8234 14.9718 10.8234 15.5913V21.9819H6.74926V12.8528H4.20791L14.0027 2.49046L14.6142 3.13793L23.7948 12.8528H21.2508Z" fill="#27BB9E"/>
<path d="M25.5023 11.8073L15.2734 0.982491L14.5877 0.256537C14.4315 0.0922208 14.2203 0 14 0C13.7798 0 13.5686 0.0922208 13.4124 0.256537L2.49779 11.8073C2.33772 11.9762 2.2112 12.1772 2.12573 12.3987C2.04025 12.6201 1.99754 12.8575 2.00011 13.0967C2.0107 14.0833 2.78634 14.8709 3.71817 14.8709H4.84325V24H23.1569V14.8709H24.3058C24.7584 14.8709 25.1846 14.6831 25.505 14.344C25.6627 14.1775 25.7876 13.9796 25.8726 13.7616C25.9576 13.5437 26.0009 13.31 26 13.0743C26 12.5978 25.8226 12.1465 25.5023 11.8073ZM15.4825 21.9819H12.5176V16.264H15.4825V21.9819ZM21.2508 12.8528V21.9819H17.1767V15.5913C17.1767 14.9718 16.7029 14.4701 16.1178 14.4701H11.8823C11.2972 14.4701 10.8234 14.9718 10.8234 15.5913V21.9819H6.74926V12.8528H4.20791L14.0027 2.49046L14.6142 3.13793L23.7948 12.8528H21.2508Z" stroke="#27BB9E"/>
</g>
<defs>
<filter id="filter0_d_164_1385" x="0" y="0" width="28" height="28" filterUnits="userSpaceOnUse" color-interpolation-filters="sRGB">
<feFlood flood-opacity="0" result="BackgroundImageFix"/>
<feColorMatrix in="SourceAlpha" type="matrix" values="0 0 0 0 0 0 0 0 0 0 0 0 0 0 0 0 0 0 127 0" result="hardAlpha"/>
<feOffset dy="2"/>
<feGaussianBlur stdDeviation="1"/>
<feComposite in2="hardAlpha" operator="out"/>
<feColorMatrix type="matrix" values="0 0 0 0 0 0 0 0 0 0 0 0 0 0 0 0 0 0 0.25 0"/>
<feBlend mode="normal" in2="BackgroundImageFix" result="effect1_dropShadow_164_1385"/>
<feBlend mode="normal" in="SourceGraphic" in2="effect1_dropShadow_164_1385" result="shape"/>
</filter>
</defs>
</svg>
