<svg width="28" height="28" viewBox="0 0 28 28" fill="none" xmlns="http://www.w3.org/2000/svg">
<g filter="url(#filter0_d_164_1386)">
<path d="M19.6137 15.5148C21.0661 13.5326 21.7166 11.0751 21.4351 8.63383C21.1536 6.19257 19.9608 3.94764 18.0954 2.34816C16.23 0.74868 13.8295 -0.0873826 11.3742 0.00723687C8.91897 0.101856 6.58995 1.12018 4.85314 2.85848C3.11633 4.59677 2.09982 6.92685 2.00697 9.38254C1.91412 11.8382 2.75178 14.2384 4.35237 16.1029C5.95296 17.9675 8.19843 19.1588 10.6396 19.4386C13.0807 19.7184 15.5374 19.066 17.5183 17.612H17.5168C17.5608 17.672 17.6098 17.7295 17.6638 17.7846L23.4385 23.5602C23.7198 23.8416 24.1013 23.9999 24.4992 24C24.8971 24.0001 25.2788 23.8422 25.5602 23.5609C25.8417 23.2796 25.9999 22.898 26 22.5001C26.0001 22.1021 25.8422 21.7204 25.561 21.4389L19.7862 15.6633C19.7326 15.609 19.6749 15.5604 19.6137 15.5148ZM20.0007 9.74823C20.0007 10.8317 19.7873 11.9047 19.3727 12.9057C18.9581 13.9067 18.3504 14.8163 17.5844 15.5825C16.8183 16.3486 15.9089 16.9564 14.908 17.371C13.9071 17.7857 12.8343 17.9991 11.751 17.9991C10.6676 17.9991 9.59486 17.7857 8.59396 17.371C7.59306 16.9564 6.68362 16.3486 5.91757 15.5825C5.15151 14.8163 4.54385 13.9067 4.12926 12.9057C3.71468 11.9047 3.50129 10.8317 3.50129 9.74823C3.50129 7.55997 4.37045 5.46133 5.91757 3.91399C7.46469 2.36666 9.56303 1.49738 11.751 1.49738C13.9389 1.49738 16.0373 2.36666 17.5844 3.91399C19.1315 5.46133 20.0007 7.55997 20.0007 9.74823Z" fill="#8295AB"/>
<path d="M19.6137 15.5148C21.0661 13.5326 21.7166 11.0751 21.4351 8.63383C21.1536 6.19257 19.9608 3.94764 18.0954 2.34816C16.23 0.74868 13.8295 -0.0873826 11.3742 0.00723687C8.91897 0.101856 6.58995 1.12018 4.85314 2.85848C3.11633 4.59677 2.09982 6.92685 2.00697 9.38254C1.91412 11.8382 2.75178 14.2384 4.35237 16.1029C5.95296 17.9675 8.19843 19.1588 10.6396 19.4386C13.0807 19.7184 15.5374 19.066 17.5183 17.612H17.5168C17.5608 17.672 17.6098 17.7295 17.6638 17.7846L23.4385 23.5602C23.7198 23.8416 24.1013 23.9999 24.4992 24C24.8971 24.0001 25.2788 23.8422 25.5602 23.5609C25.8417 23.2796 25.9999 22.898 26 22.5001C26.0001 22.1021 25.8422 21.7204 25.561 21.4389L19.7862 15.6633C19.7326 15.609 19.6749 15.5604 19.6137 15.5148ZM20.0007 9.74823C20.0007 10.8317 19.7873 11.9047 19.3727 12.9057C18.9581 13.9067 18.3504 14.8163 17.5844 15.5825C16.8183 16.3486 15.9089 16.9564 14.908 17.371C13.9071 17.7857 12.8343 17.9991 11.751 17.9991C10.6676 17.9991 9.59486 17.7857 8.59396 17.371C7.59306 16.9564 6.68362 16.3486 5.91757 15.5825C5.15151 14.8163 4.54385 13.9067 4.12926 12.9057C3.71468 11.9047 3.50129 10.8317 3.50129 9.74823C3.50129 7.55997 4.37045 5.46133 5.91757 3.91399C7.46469 2.36666 9.56303 1.49738 11.751 1.49738C13.9389 1.49738 16.0373 2.36666 17.5844 3.91399C19.1315 5.46133 20.0007 7.55997 20.0007 9.74823Z" stroke="#8295AB"/>
</g>
<defs>
<filter id="filter0_d_164_1386" x="0" y="0" width="28" height="28" filterUnits="userSpaceOnUse" color-interpolation-filters="sRGB">
<feFlood flood-opacity="0" result="BackgroundImageFix"/>
<feColorMatrix in="SourceAlpha" type="matrix" values="0 0 0 0 0 0 0 0 0 0 0 0 0 0 0 0 0 0 127 0" result="hardAlpha"/>
<feOffset dy="2"/>
<feGaussianBlur stdDeviation="1"/>
<feComposite in2="hardAlpha" operator="out"/>
<feColorMatrix type="matrix" values="0 0 0 0 0 0 0 0 0 0 0 0 0 0 0 0 0 0 0.25 0"/>
<feBlend mode="normal" in2="BackgroundImageFix" result="effect1_dropShadow_164_1386"/>
<feBlend mode="normal" in="SourceGraphic" in2="effect1_dropShadow_164_1386" result="shape"/>
</filter>
</defs>
</svg>
