<svg width="12" height="12" viewBox="0 0 12 12" fill="none" xmlns="http://www.w3.org/2000/svg">
<path d="M1.5 1.5H3V3H1.5V1.5Z" fill="black"/>
<path d="M4.5 0V4.5H0V0H4.5ZM3.75 0.75H0.75V3.75H3.75V0.75ZM3 9H1.5V10.5H3V9Z" fill="black"/>
<path d="M4.5 7.5V12H0V7.5H4.5ZM0.75 8.25V11.25H3.75V8.25H0.75ZM9 1.5H10.5V3H9V1.5Z" fill="black"/>
<path d="M7.5 0V4.5H12V0H7.5ZM11.25 0.75V3.75H8.25V0.75H11.25ZM6 0.75V0H6.75V1.5H6V3H5.25V0.75H6ZM6 4.5V3H6.75V4.5H6ZM4.5 6V5.25H5.25V4.5H6V6H6.75V5.25H10.5V6H7.5V6.75H5.25V6H4.5ZM4.5 6V6.75H1.5V6H0.75V6.75H0V5.25H2.25V6H4.5ZM12 6.75H11.25V5.25H12V6.75ZM11.25 6.75H10.5V8.25H12V7.5H11.25V6.75ZM8.25 6.75H9.75V7.5H9V8.25H8.25V6.75ZM9.75 9V8.25H9V9H8.25V9.75H6.75V10.5H9V9H9.75ZM9.75 9H12V9.75H10.5V10.5H9.75V9ZM6.75 8.25V9H7.5V7.5H5.25V8.25H6.75Z" fill="black"/>
<path d="M5.25 9H6V11.25H9V12H5.25V9ZM12 10.5V12H9.75V11.25H11.25V10.5H12Z" fill="black"/>
</svg>
