<svg width="11" height="12" viewBox="0 0 11 12" fill="none" xmlns="http://www.w3.org/2000/svg">
<path d="M5.07692 0.888889V0.444444C5.07692 0.32657 5.1215 0.213524 5.20084 0.130175C5.28018 0.0468253 5.38779 0 5.5 0C5.61221 0 5.71982 0.0468253 5.79916 0.130175C5.8785 0.213524 5.92308 0.32657 5.92308 0.444444V0.888889C5.92308 1.00676 5.8785 1.11981 5.79916 1.20316C5.71982 1.28651 5.61221 1.33333 5.5 1.33333C5.38779 1.33333 5.28018 1.28651 5.20084 1.20316C5.1215 1.11981 5.07692 1.00676 5.07692 0.888889ZM9.30769 2.66667C9.36327 2.66671 9.41831 2.65526 9.46967 2.63295C9.52103 2.61064 9.5677 2.57793 9.60702 2.53667L10.0301 2.09222C10.1095 2.00883 10.1541 1.89572 10.1541 1.77778C10.1541 1.65984 10.1095 1.54673 10.0301 1.46333C9.95071 1.37994 9.84304 1.33309 9.73077 1.33309C9.6185 1.33309 9.51083 1.37994 9.43144 1.46333L9.00837 1.90778C8.94913 1.96994 8.90878 2.04916 8.89243 2.13542C8.87608 2.22168 8.88446 2.3111 8.91651 2.39235C8.94856 2.47361 9.00283 2.54304 9.07247 2.59188C9.14211 2.64071 9.22397 2.66674 9.30769 2.66667ZM1.39298 2.53667C1.47237 2.62006 1.58004 2.66691 1.69231 2.66691C1.80458 2.66691 1.91225 2.62006 1.99163 2.53667C2.07102 2.45327 2.11562 2.34016 2.11562 2.22222C2.11562 2.10428 2.07102 1.99117 1.99163 1.90778L1.56856 1.46333C1.48917 1.37994 1.3815 1.33309 1.26923 1.33309C1.15696 1.33309 1.04929 1.37994 0.969904 1.46333C0.890517 1.54673 0.845919 1.65984 0.845919 1.77778C0.845919 1.89572 0.890517 2.00883 0.969904 2.09222L1.39298 2.53667ZM11 9.77778V11.1111C11 11.3469 10.9109 11.573 10.7522 11.7397C10.5935 11.9063 10.3783 12 10.1538 12H0.846154C0.62174 12 0.406517 11.9063 0.247833 11.7397C0.0891481 11.573 0 11.3469 0 11.1111V9.77778C0 9.54203 0.0891481 9.31594 0.247833 9.14924C0.406517 8.98254 0.62174 8.88889 0.846154 8.88889V7.11111C0.846136 6.46595 0.967675 5.82716 1.20377 5.23158C1.43986 4.63599 1.78583 4.09538 2.22174 3.64092C2.65765 3.18645 3.17487 2.82712 3.7436 2.58363C4.31233 2.34014 4.92131 2.21731 5.53543 2.22222C8.08183 2.24222 10.1538 4.46056 10.1538 7.16667V8.88889C10.3783 8.88889 10.5935 8.98254 10.7522 9.14924C10.9109 9.31594 11 9.54203 11 9.77778ZM5.85327 4.88278C6.85755 5.06 7.61538 6.01778 7.61538 7.11111C7.61538 7.22899 7.65996 7.34203 7.7393 7.42538C7.81864 7.50873 7.92625 7.55556 8.03846 7.55556C8.15067 7.55556 8.25828 7.50873 8.33762 7.42538C8.41696 7.34203 8.46154 7.22899 8.46154 7.11111C8.46154 5.58889 7.40014 4.25389 5.99289 4.00611C5.93785 3.99589 5.88143 3.99722 5.82689 4.01003C5.77235 4.02284 5.72076 4.04688 5.67511 4.08075C5.62946 4.11463 5.59066 4.15767 5.56093 4.20739C5.53121 4.25711 5.51115 4.31252 5.50193 4.37043C5.49271 4.42834 5.4945 4.48759 5.5072 4.54476C5.5199 4.60194 5.54326 4.65591 5.57593 4.70354C5.6086 4.75118 5.64992 4.79155 5.69753 4.82231C5.74513 4.85308 5.79806 4.87363 5.85327 4.88278ZM10.1538 11.1111V9.77778H0.846154V11.1111H10.1538Z" fill="#231816"/>
</svg>
