<svg width="8" height="9" viewBox="0 0 8 9" fill="none" xmlns="http://www.w3.org/2000/svg">
<path d="M7.74843 0.905432H5.64528V0.679074C5.64528 0.498972 5.56577 0.326247 5.42423 0.198896C5.28269 0.0715451 5.09073 0 4.89057 0H3.10943C2.90927 0 2.71731 0.0715451 2.57577 0.198896C2.43423 0.326247 2.35472 0.498972 2.35472 0.679074V0.905432H0.251572C0.184851 0.905432 0.120863 0.92928 0.0736836 0.971731C0.0265047 1.01418 0 1.07176 0 1.13179C0 1.19182 0.0265047 1.2494 0.0736836 1.29185C0.120863 1.3343 0.184851 1.35815 0.251572 1.35815H0.613836L0.825157 7.89989C0.833441 8.1948 0.969724 8.47507 1.20483 8.68068C1.43993 8.8863 1.75516 9.00092 2.08302 9H5.91698C6.24484 9.00092 6.56007 8.8863 6.79517 8.68068C7.03028 8.47507 7.16656 8.1948 7.17484 7.89989L7.38616 1.35815H7.74843C7.81515 1.35815 7.87914 1.3343 7.92632 1.29185C7.97349 1.2494 8 1.19182 8 1.13179C8 1.07176 7.97349 1.01418 7.92632 0.971731C7.87914 0.92928 7.81515 0.905432 7.74843 0.905432ZM2.85786 0.679074C2.85786 0.61904 2.88437 0.561465 2.93155 0.519015C2.97872 0.476564 3.04271 0.452716 3.10943 0.452716H4.89057C4.95729 0.452716 5.02128 0.476564 5.06845 0.519015C5.11563 0.561465 5.14214 0.61904 5.14214 0.679074V0.905432H2.85786V0.679074ZM6.6717 7.88631C6.66645 8.06326 6.58463 8.23137 6.44366 8.35483C6.30268 8.47829 6.11371 8.54734 5.91698 8.54728H2.08302C1.88629 8.54734 1.69732 8.47829 1.55634 8.35483C1.41537 8.23137 1.33355 8.06326 1.3283 7.88631L1.11195 1.35815H6.88805L6.6717 7.88631Z" fill="black"/>
<path d="M2.17578 2.68925C2.17578 2.62921 2.20229 2.57164 2.24946 2.52919C2.29664 2.48674 2.36063 2.46289 2.42735 2.46289C2.49407 2.46289 2.55806 2.48674 2.60524 2.52919C2.65242 2.57164 2.67893 2.62921 2.67893 2.68925L2.80471 7.21641C2.80471 7.27644 2.77821 7.33402 2.73103 7.37647C2.68385 7.41892 2.61986 7.44277 2.55314 7.44277C2.48642 7.44277 2.42243 7.41892 2.37525 7.37647C2.32807 7.33402 2.30157 7.27644 2.30157 7.21641L2.17578 2.68925Z" fill="black"/>
<path d="M5.82327 2.69218C5.82327 2.63214 5.79676 2.57457 5.74958 2.53212C5.7024 2.48967 5.63842 2.46582 5.57169 2.46582C5.50497 2.46582 5.44098 2.48967 5.39381 2.53212C5.34663 2.57457 5.32012 2.63214 5.32012 2.69218L5.19434 7.21934C5.19434 7.27937 5.22084 7.33695 5.26802 7.3794C5.3152 7.42185 5.37919 7.4457 5.44591 7.4457C5.51263 7.4457 5.57662 7.42185 5.6238 7.3794C5.67098 7.33695 5.69748 7.27937 5.69748 7.21934L5.82327 2.69218Z" fill="black"/>
</svg>
