<svg width="20" height="20" viewBox="0 0 20 20" fill="none" xmlns="http://www.w3.org/2000/svg">
<circle cx="10" cy="10" r="10" fill="#8296AB"/>
<path d="M13.9997 10.9997C13.8666 11.0028 13.7341 10.9791 13.6102 10.9303C13.4863 10.8814 13.3734 10.8082 13.2782 10.7151C13.1829 10.622 13.1072 10.5108 13.0555 10.3881C13.0038 10.2653 12.9772 10.1335 12.9771 10.0002C12.9771 9.86705 13.0037 9.73518 13.0553 9.61239C13.1069 9.4896 13.1826 9.37836 13.2778 9.28521C13.373 9.19205 13.4859 9.11886 13.6098 9.06992C13.7337 9.02099 13.8661 8.9973 13.9992 9.00024C14.2605 9.00602 14.5092 9.11386 14.6919 9.30066C14.8747 9.48747 14.9771 9.73841 14.9771 9.99975C14.9772 10.2611 14.875 10.5121 14.6923 10.699C14.5096 10.8859 14.261 10.9938 13.9997 10.9997ZM6.99974 9.99974C7.00276 10.1329 6.97913 10.2653 6.93026 10.3893C6.88139 10.5132 6.80825 10.6261 6.71514 10.7213C6.62204 10.8166 6.51084 10.8923 6.38807 10.944C6.26531 10.9957 6.13345 11.0223 6.00025 11.0224C5.86705 11.0224 5.73518 10.9958 5.61239 10.9442C5.4896 10.8925 5.37836 10.8169 5.28521 10.7217C5.19205 10.6265 5.11886 10.5136 5.06992 10.3897C5.02099 10.2658 4.9973 10.1334 5.00024 10.0002C5.00602 9.73896 5.11386 9.49033 5.30066 9.30756C5.48747 9.12479 5.73841 9.02242 5.99975 9.02235C6.26109 9.02229 6.51208 9.12454 6.69898 9.30721C6.88588 9.48988 6.99384 9.73847 6.99974 9.99974ZM10.9997 9.99974C11.0028 10.1329 10.9791 10.2653 10.9303 10.3893C10.8814 10.5132 10.8082 10.6261 10.7151 10.7213C10.622 10.8166 10.5108 10.8923 10.3881 10.944C10.2653 10.9957 10.1335 11.0223 10.0002 11.0224C9.86705 11.0224 9.73518 10.9958 9.61239 10.9442C9.4896 10.8925 9.37836 10.8169 9.28521 10.7217C9.19205 10.6265 9.11886 10.5136 9.06992 10.3897C9.02099 10.2658 8.9973 10.1334 9.00024 10.0002C9.00602 9.73896 9.11386 9.49033 9.30066 9.30756C9.48747 9.12479 9.73841 9.02242 9.99975 9.02235C10.2611 9.02229 10.5121 9.12454 10.699 9.30721C10.8859 9.48988 10.9938 9.73847 10.9997 9.99974Z" fill="white"/>
</svg>
