<svg width="20" height="20" viewBox="0 0 20 20" fill="none" xmlns="http://www.w3.org/2000/svg">
<path d="M10 0C8.02219 0 6.08879 0.58649 4.4443 1.6853C2.79981 2.78412 1.51809 4.3459 0.761209 6.17316C0.00433284 8.00042 -0.1937 10.0111 0.192152 11.9509C0.578004 13.8907 1.53041 15.6725 2.92894 17.0711C4.32746 18.4696 6.10929 19.422 8.0491 19.8078C9.98891 20.1937 11.9996 19.9957 13.8268 19.2388C15.6541 18.4819 17.2159 17.2002 18.3147 15.5557C19.4135 13.9112 20 11.9778 20 10C19.9972 7.34869 18.9427 4.80678 17.068 2.93202C15.1932 1.05727 12.6513 0.00279983 10 0ZM16.9231 11.5385H15.1365L13.7904 14.9038C13.7334 15.0467 13.6348 15.1692 13.5074 15.2555C13.3801 15.3418 13.2298 15.3879 13.076 15.3879C12.9221 15.3879 12.7718 15.3418 12.6445 15.2555C12.5171 15.1692 12.4186 15.0467 12.3615 14.9038L10 8.99423L7.6375 14.9038C7.58048 15.0467 7.48192 15.1692 7.35457 15.2555C7.22721 15.3418 7.07691 15.3879 6.92308 15.3879C6.76925 15.3879 6.61895 15.3418 6.49159 15.2555C6.36424 15.1692 6.26568 15.0467 6.20866 14.9038L4.8625 11.5385H3.07693C2.87291 11.5385 2.67726 11.4574 2.533 11.3132C2.38874 11.1689 2.3077 10.9732 2.3077 10.7692C2.3077 10.5652 2.38874 10.3696 2.533 10.2253C2.67726 10.081 2.87291 10 3.07693 10H4.24808L3.13173 7.21154C3.09385 7.11772 3.07482 7.01736 3.07573 6.91618C3.07663 6.81501 3.09746 6.715 3.13701 6.62188C3.21689 6.4338 3.36822 6.28516 3.5577 6.20865C3.74717 6.13215 3.95928 6.13405 4.14736 6.21393C4.33544 6.29381 4.48408 6.44514 4.56058 6.63461L6.92308 12.5442L9.28558 6.63461C9.34261 6.49174 9.44116 6.36925 9.56851 6.28296C9.69587 6.19667 9.84617 6.15054 10 6.15054C10.1538 6.15054 10.3041 6.19667 10.4315 6.28296C10.5588 6.36925 10.6574 6.49174 10.7144 6.63461L13.0769 12.5442L15.4394 6.63461C15.5159 6.44514 15.6646 6.29381 15.8526 6.21393C16.0407 6.13405 16.2528 6.13215 16.4423 6.20865C16.6318 6.28516 16.7831 6.4338 16.863 6.62188C16.9429 6.80995 16.9448 7.02206 16.8683 7.21154L15.7519 10H16.9231C17.1271 10 17.3227 10.081 17.467 10.2253C17.6113 10.3696 17.6923 10.5652 17.6923 10.7692C17.6923 10.9732 17.6113 11.1689 17.467 11.3132C17.3227 11.4574 17.1271 11.5385 16.9231 11.5385Z" fill="#8296AB"/>
</svg>
