<svg width="20" height="20" viewBox="0 0 20 20" fill="none" xmlns="http://www.w3.org/2000/svg">
<rect x="0.5" y="0.5" width="19" height="19" rx="4.5" fill="#8296AB" stroke="#8296AB"/>
<path d="M4.03966 13.2652L4.72278 13.9592C4.77612 14.0136 4.86388 14.0136 4.91722 13.9592L8.95572 9.84978L10.6351 11.5592C10.7386 11.6639 10.8784 11.7226 11.024 11.7226C11.1697 11.7226 11.3094 11.6639 11.4129 11.5592L15.959 6.93509C16.0124 6.88063 16.0124 6.79102 15.959 6.73656L15.2759 6.04083C15.25 6.01467 15.2151 6 15.1787 6C15.1423 6 15.1073 6.01467 15.0815 6.04083L11.0257 10.1695L9.34461 8.46007C9.24114 8.3554 9.10138 8.29668 8.95572 8.29668C8.81007 8.29668 8.67031 8.3554 8.56684 8.46007L4.03966 13.0666C4.02678 13.0796 4.01657 13.0951 4.00959 13.1121C4.00262 13.1292 3.99902 13.1474 3.99902 13.1659C3.99902 13.1844 4.00262 13.2027 4.00959 13.2197C4.01657 13.2367 4.02678 13.2522 4.03966 13.2652Z" fill="white"/>
</svg>
