<svg width="16" height="16" viewBox="0 0 16 16" fill="none" xmlns="http://www.w3.org/2000/svg">
<path d="M8 0C6.41775 0 4.87103 0.469192 3.55544 1.34824C2.23985 2.22729 1.21447 3.47672 0.608967 4.93853C0.00346628 6.40034 -0.15496 8.00887 0.153721 9.56072C0.462403 11.1126 1.22433 12.538 2.34315 13.6569C3.46197 14.7757 4.88743 15.5376 6.43928 15.8463C7.99113 16.155 9.59966 15.9965 11.0615 15.391C12.5233 14.7855 13.7727 13.7602 14.6518 12.4446C15.5308 11.129 16 9.58225 16 8C15.9978 5.87895 15.1542 3.84542 13.6544 2.34562C12.1546 0.845814 10.121 0.00223986 8 0ZM13.5385 9.23077H12.1092L11.0323 11.9231C10.9867 12.0374 10.9078 12.1354 10.806 12.2044C10.7041 12.2734 10.5838 12.3103 10.4608 12.3103C10.3377 12.3103 10.2175 12.2734 10.1156 12.2044C10.0137 12.1354 9.93485 12.0374 9.88923 11.9231L8 7.19538L6.11 11.9231C6.06438 12.0374 5.98554 12.1354 5.88365 12.2044C5.78177 12.2734 5.66153 12.3103 5.53846 12.3103C5.4154 12.3103 5.29516 12.2734 5.19327 12.2044C5.09139 12.1354 5.01255 12.0374 4.96693 11.9231L3.89 9.23077H2.46154C2.29833 9.23077 2.14181 9.16593 2.0264 9.05053C1.91099 8.93512 1.84616 8.77859 1.84616 8.61538C1.84616 8.45217 1.91099 8.29565 2.0264 8.18024C2.14181 8.06483 2.29833 8 2.46154 8H3.39846L2.50539 5.76923C2.47508 5.69417 2.45986 5.61388 2.46058 5.53294C2.46131 5.45201 2.47797 5.372 2.50961 5.2975C2.57352 5.14704 2.69458 5.02813 2.84616 4.96692C2.99774 4.90572 3.16742 4.90724 3.31789 4.97114C3.46835 5.03505 3.58726 5.15611 3.64846 5.30769L5.53846 10.0354L7.42846 5.30769C7.47408 5.19339 7.55293 5.0954 7.65481 5.02637C7.75669 4.95733 7.87693 4.92043 8 4.92043C8.12307 4.92043 8.24331 4.95733 8.34519 5.02637C8.44707 5.0954 8.52592 5.19339 8.57154 5.30769L10.4615 10.0354L12.3515 5.30769C12.4127 5.15611 12.5317 5.03505 12.6821 4.97114C12.8326 4.90724 13.0023 4.90572 13.1538 4.96692C13.3054 5.02813 13.4265 5.14704 13.4904 5.2975C13.5543 5.44796 13.5558 5.61765 13.4946 5.76923L12.6015 8H13.5385C13.7017 8 13.8582 8.06483 13.9736 8.18024C14.089 8.29565 14.1538 8.45217 14.1538 8.61538C14.1538 8.77859 14.089 8.93512 13.9736 9.05053C13.8582 9.16593 13.7017 9.23077 13.5385 9.23077Z" fill="#C686E4"/>
</svg>
