<svg width="16" height="16" viewBox="0 0 16 16" fill="none" xmlns="http://www.w3.org/2000/svg">
<rect x="0.640755" width="0.906164" height="4.53082" rx="0.453082" transform="matrix(0.707106 -0.707107 0.707106 0.707107 11.0617 12.6086)" fill="#0FCEB4" stroke="#0FCEB4" stroke-width="0.906164"/>
<path d="M7.24931 0C5.81553 0 4.41395 0.425165 3.22181 1.22173C2.02967 2.0183 1.10051 3.15048 0.551824 4.47512C0.00314101 5.79976 -0.140419 7.25736 0.139297 8.66359C0.419013 10.0698 1.10944 11.3615 2.12328 12.3754C3.13711 13.3892 4.42881 14.0796 5.83504 14.3593C7.24127 14.6391 8.69886 14.4955 10.0235 13.9468C11.3481 13.3981 12.4803 12.469 13.2769 11.2768C14.0735 10.0847 14.4986 8.6831 14.4986 7.24932C14.4966 5.3273 13.7322 3.48459 12.3731 2.12552C11.014 0.766447 9.17132 0.00202968 7.24931 0ZM12.2681 8.3646H10.9729L9.99708 10.8043C9.95574 10.9078 9.88429 10.9966 9.79197 11.0592C9.69965 11.1218 9.59069 11.1552 9.47917 11.1552C9.36765 11.1552 9.25869 11.1218 9.16637 11.0592C9.07405 10.9966 9.0026 10.9078 8.96126 10.8043L7.24931 6.52021L5.53666 10.8043C5.49532 10.9078 5.42388 10.9966 5.33155 11.0592C5.23923 11.1218 5.13027 11.1552 5.01875 11.1552C4.90724 11.1552 4.79828 11.1218 4.70596 11.0592C4.61363 10.9966 4.54219 10.9078 4.50085 10.8043L3.52498 8.3646H2.23056C2.08266 8.3646 1.94083 8.30585 1.83625 8.20127C1.73167 8.09669 1.67292 7.95485 1.67292 7.80696C1.67292 7.65906 1.73167 7.51723 1.83625 7.41265C1.94083 7.30807 2.08266 7.24932 2.23056 7.24932H3.07956L2.27029 5.22787C2.24283 5.15986 2.22903 5.08711 2.22969 5.01376C2.23035 4.94042 2.24544 4.86792 2.27412 4.80041C2.33203 4.66407 2.44173 4.55631 2.57908 4.50085C2.71644 4.44539 2.8702 4.44677 3.00655 4.50468C3.14289 4.56259 3.25065 4.67229 3.30611 4.80964L5.01875 9.09371L6.7314 4.80964C6.77274 4.70607 6.84419 4.61727 6.93651 4.55472C7.02883 4.49216 7.13779 4.45873 7.24931 4.45873C7.36083 4.45873 7.46979 4.49216 7.56211 4.55472C7.65443 4.61727 7.72588 4.70607 7.76722 4.80964L9.47987 9.09371L11.1925 4.80964C11.248 4.67229 11.3557 4.56259 11.4921 4.50468C11.6284 4.44677 11.7822 4.44539 11.9195 4.50085C12.0569 4.55631 12.1666 4.66407 12.2245 4.80041C12.2824 4.93675 12.2838 5.09052 12.2283 5.22787L11.4191 7.24932H12.2681C12.416 7.24932 12.5578 7.30807 12.6624 7.41265C12.767 7.51723 12.8257 7.65906 12.8257 7.80696C12.8257 7.95485 12.767 8.09669 12.6624 8.20127C12.5578 8.30585 12.416 8.3646 12.2681 8.3646Z" fill="#0FCEB4"/>
</svg>
