<svg width="20" height="20" viewBox="0 0 20 20" fill="none" xmlns="http://www.w3.org/2000/svg">
<path d="M11.8319 0.674685C10.7763 -0.224898 9.22369 -0.224889 8.16818 0.674675L6.89911 1.75614C6.74832 1.88463 6.56085 1.96228 6.36337 1.97804L4.70131 2.11068C3.31881 2.221 2.221 3.31882 2.11067 4.70131L1.97805 6.36337C1.9623 6.56084 1.88462 6.74836 1.75613 6.89914L0.674665 8.16818C-0.224896 9.2238 -0.224887 10.7763 0.674684 11.8318L1.75615 13.1009C1.88462 13.2518 1.96228 13.4392 1.97804 13.6367L2.11069 15.2987C2.22102 16.6812 3.31884 17.7789 4.70135 17.8893L6.36338 18.022C6.56085 18.0377 6.74828 18.1154 6.89906 18.2439L8.16808 19.3253C9.22369 20.2248 10.7763 20.2249 11.8319 19.3253L13.1009 18.2439C13.2516 18.1154 13.4391 18.0377 13.6366 18.0219L15.2987 17.8893C16.6811 17.779 17.7789 16.6812 17.8893 15.2987L18.0219 13.6367C18.0376 13.4392 18.1154 13.2517 18.2438 13.1008L19.3253 11.8319C20.2249 10.7763 20.2249 9.2237 19.3253 8.16818L18.2438 6.8991C18.1153 6.74832 18.0377 6.56084 18.022 6.36338L17.8893 4.70132C17.779 3.31884 16.6811 2.22098 15.2987 2.11067L13.6366 1.97803C13.4391 1.96227 13.2516 1.88463 13.1009 1.75614L11.8319 0.674685ZM12.6625 6.00601L13.9939 7.33738L7.33701 13.9943L6.00565 12.6628L12.6625 6.00601ZM8.33556 8.33585C7.78406 8.88733 6.88996 8.88733 6.33849 8.33585C5.78701 7.78446 5.78701 6.89032 6.33849 6.33885C6.88996 5.78737 7.78406 5.78737 8.33556 6.33885C8.88704 6.89032 8.88704 7.78446 8.33556 8.33585ZM11.6639 13.6614C11.1125 13.1099 11.1125 12.2158 11.6639 11.6643C12.2154 11.1128 13.1095 11.1128 13.661 11.6643C14.2124 12.2158 14.2124 13.1099 13.661 13.6614C13.1095 14.2128 12.2154 14.2128 11.6639 13.6614Z" fill="#8296AB"/>
</svg>
