<svg width="28" height="28" viewBox="0 0 28 28" fill="none" xmlns="http://www.w3.org/2000/svg">
<path d="M10 0C6.14453 0 3 3.4304 3 7.63636C3 10.2656 4.23047 12.6009 6.09375 13.9773C2.52734 15.6477 0 19.5085 0 24H2C2 19.1676 5.57031 15.2727 10 15.2727C14 15.5 15 16 16 19.5H19C17.5 15.5 15.5 14 13.9062 13.9773C16 13 17 10.2656 17 7.63636C17 3.4304 13.8555 0 10 0ZM10 2.18182C12.7734 2.18182 15 4.6108 15 7.63636C15 10.6619 12.7734 13.0909 10 13.0909C7.22656 13.0909 5 10.6619 5 7.63636C5 4.6108 7.22656 2.18182 10 2.18182Z" fill="#444D56"/>
<path d="M18.972 19.758V24.486H18.324V20.478L16.638 24.486H16.206L14.55 20.484V24.486H13.956V19.758H14.826L16.47 23.748L18.126 19.758H18.972ZM21.2777 24.486H20.6177V22.476L19.0877 19.758H19.7777L21.0077 22.002L22.2737 19.758H22.8617L21.2777 22.47V24.486Z" fill="#444D56"/>
</svg>
